<svg aria-hidden="true" style="position: absolute; width: 0; height: 0; overflow: hidden;" version="1.1" xmlns="http://www.w3.org/2000/svg" xmlns:xlink="http://www.w3.org/1999/xlink">
<defs>
<symbol id="icon-arrow-up" viewBox="0 0 32 32">
<path fill="none" stroke="#1d1e21" style="stroke: var(--color3, #1d1e21)" stroke-linejoin="round" stroke-linecap="round" stroke-miterlimit="4" stroke-width="3" d="M24 20l-8-8-8 8"></path>
</symbol>
<symbol id="icon-arrow-down" viewBox="0 0 32 32">
<path fill="none" stroke="#1d1e21" style="stroke: var(--color1, #1d1e21)" stroke-linejoin="round" stroke-linecap="round" stroke-miterlimit="4" stroke-width="3" d="M8 12l8 8 8-8"></path>
</symbol>
<symbol id="icon-arrow-left" viewBox="0 0 32 32">
<path d="M14.133 16.946c-0.125-0.124-0.224-0.271-0.292-0.434s-0.103-0.337-0.103-0.513 0.035-0.35 0.103-0.513c0.068-0.163 0.167-0.31 0.292-0.434l6.12-6.107c0.125-0.124 0.224-0.271 0.292-0.434s0.103-0.337 0.103-0.513-0.035-0.35-0.103-0.513c-0.068-0.162-0.167-0.31-0.292-0.434-0.25-0.248-0.588-0.388-0.94-0.388s-0.69 0.139-0.94 0.388l-6.12 6.12c-0.749 0.75-1.17 1.767-1.17 2.827s0.421 2.077 1.17 2.827l6.12 6.12c0.248 0.246 0.583 0.385 0.933 0.387 0.175 0.001 0.349-0.033 0.512-0.099s0.31-0.164 0.435-0.288c0.125-0.124 0.224-0.271 0.292-0.434s0.103-0.337 0.103-0.513c0-0.176-0.035-0.35-0.103-0.513s-0.167-0.31-0.292-0.434l-6.12-6.107z" fill="currentColor"></path>
</symbol>
  <symbol id="double-arrow-left" viewBox="0 0 32 24" fill="none">
    <path d="M19.4 12.7098C19.4938 12.6169 19.5682 12.5063 19.619 12.3844C19.6697 12.2625 19.6959 12.1318 19.6959 11.9998C19.6959 11.8678 19.6697 11.7371 19.619 11.6152C19.5682 11.4934 19.4938 11.3828 19.4 11.2898L14.81 6.70982C14.7163 6.61685 14.6419 6.50625 14.5911 6.38439C14.5404 6.26253 14.5142 6.13183 14.5142 5.99982C14.5142 5.86781 14.5404 5.7371 14.5911 5.61524C14.6419 5.49338 14.7163 5.38278 14.81 5.28982C14.9974 5.10357 15.2508 4.99902 15.515 4.99902C15.7792 4.99902 16.0326 5.10357 16.22 5.28982L20.81 9.87982C21.3718 10.4423 21.6874 11.2048 21.6874 11.9998C21.6874 12.7948 21.3718 13.5573 20.81 14.1198L16.22 18.7098C16.0338 18.8946 15.7823 18.9987 15.52 18.9998C15.3884 19.0006 15.258 18.9754 15.1361 18.9256C15.0143 18.8758 14.9035 18.8025 14.81 18.7098C14.7163 18.6169 14.6419 18.5063 14.5911 18.3844C14.5404 18.2625 14.5142 18.1318 14.5142 17.9998C14.5142 17.8678 14.5404 17.7371 14.5911 17.6153C14.6419 17.4934 14.7163 17.3828 14.81 17.2898L19.4 12.7098Z" fill="currentColor"/>
    <path d="M13.4 12.7098C13.4938 12.6169 13.5682 12.5063 13.619 12.3844C13.6697 12.2625 13.6959 12.1318 13.6959 11.9998C13.6959 11.8678 13.6697 11.7371 13.619 11.6152C13.5682 11.4934 13.4938 11.3828 13.4 11.2898L8.81 6.70982C8.71627 6.61685 8.64188 6.50625 8.59111 6.38439C8.54034 6.26253 8.5142 6.13183 8.5142 5.99982C8.5142 5.86781 8.54034 5.7371 8.59111 5.61524C8.64188 5.49338 8.71627 5.38278 8.81 5.28982C8.99736 5.10357 9.25081 4.99902 9.515 4.99902C9.77919 4.99902 10.0326 5.10357 10.22 5.28982L14.81 9.87982C15.3718 10.4423 15.6874 11.2048 15.6874 11.9998C15.6874 12.7948 15.3718 13.5573 14.81 14.1198L10.22 18.7098C10.0338 18.8946 9.78231 18.9987 9.51998 18.9998C9.38837 19.0006 9.25791 18.9754 9.13607 18.9256C9.01423 18.8758 8.90342 18.8025 8.81 18.7098C8.71627 18.6169 8.64188 18.5063 8.59111 18.3844C8.54034 18.2625 8.5142 18.1318 8.5142 17.9998C8.5142 17.8678 8.54034 17.7371 8.59111 17.6153C8.64188 17.4934 8.71627 17.3828 8.81 17.2898L13.4 12.7098Z" fill="currentColor"/>
  </symbol>
  <symbol id="double-arrow-right" viewBox="0 0 32 24" fill="none">
    <g transform="scale(-1,1) translate(-32,0)">
      <use href="#double-arrow-left"/>
    </g>
  </symbol>
<symbol id="icon-arrow-right" viewBox="0 0 32 32">
<path d="M17.867 16.946c0.125-0.124 0.224-0.271 0.292-0.434s0.103-0.337 0.103-0.513-0.035-0.35-0.103-0.513c-0.068-0.162-0.167-0.31-0.292-0.434l-6.12-6.107c-0.125-0.124-0.224-0.271-0.292-0.434s-0.103-0.337-0.103-0.513c0-0.176 0.035-0.35 0.103-0.513s0.167-0.31 0.292-0.434c0.25-0.248 0.588-0.388 0.94-0.388s0.69 0.139 0.94 0.388l6.12 6.12c0.749 0.75 1.17 1.767 1.17 2.827s-0.421 2.077-1.17 2.827l-6.12 6.12c-0.248 0.246-0.584 0.385-0.933 0.387-0.175 0.001-0.349-0.033-0.512-0.099s-0.31-0.164-0.435-0.288c-0.125-0.124-0.224-0.271-0.292-0.434s-0.103-0.337-0.103-0.513c0-0.176 0.035-0.35 0.103-0.513s0.167-0.31 0.292-0.434l6.12-6.107z" fill="currentColor"></path>
</symbol>
<symbol id="icon-block-elements" viewBox="0 0 32 32">
<path fill="#59b17a" style="fill: var(--color1, #59b17a)" opacity="0.08" d="M4.651 22.595c0.847-2.096 3.232-3.108 5.328-2.261l31.982 12.922-3.066 7.589-31.982-12.922c-2.096-0.847-3.108-3.232-2.261-5.328z"></path>
<path fill="#59b17a" style="fill: var(--color1, #59b17a)" opacity="0.08" d="M15.954 5.056c0.847-2.096 3.232-3.108 5.328-2.261l31.982 12.922-3.066 7.589-31.982-12.922c-2.096-0.847-3.108-3.232-2.261-5.328z"></path>
<path fill="#59b17a" style="fill: var(--color1, #59b17a)" opacity="0.08" d="M1.533 10.318c0.847-2.096 3.232-3.108 5.328-2.261l31.982 12.922-3.066 7.589-31.982-12.922c-2.096-0.847-3.108-3.232-2.261-5.328z"></path>
</symbol>
<symbol id="icon-books" viewBox="0 0 36 32">
<path d="M7 4h-6c-0.55 0-1 0.45-1 1v22c0 0.55 0.45 1 1 1h6c0.55 0 1-0.45 1-1v-22c0-0.55-0.45-1-1-1zM6 10h-4v-2h4v2z"></path>
<path d="M17 4h-6c-0.55 0-1 0.45-1 1v22c0 0.55 0.45 1 1 1h6c0.55 0 1-0.45 1-1v-22c0-0.55-0.45-1-1-1zM16 10h-4v-2h4v2z"></path>
<path d="M23.909 5.546l-5.358 2.7c-0.491 0.247-0.691 0.852-0.443 1.343l8.999 17.861c0.247 0.491 0.852 0.691 1.343 0.443l5.358-2.7c0.491-0.247 0.691-0.852 0.443-1.343l-8.999-17.861c-0.247-0.491-0.852-0.691-1.343-0.443z"></path>
</symbol>
<symbol id="icon-burger-menu" viewBox="0 0 39 32">
<path fill="none" stroke="currentColor" style="stroke: var(--color1, currentColor)" stroke-linejoin="round" stroke-linecap="round" stroke-miterlimit="4" stroke-width="2.4615" d="M34.877 16.255h-29.538"></path>
<path fill="none" stroke="currentColor" style="stroke: var(--color1, currentColor)" stroke-linejoin="round" stroke-linecap="round" stroke-miterlimit="4" stroke-width="2.4615" d="M34.877 9.855h-29.538"></path>
<path fill="none" stroke="currentColor" style="stroke: var(--color1, currentColor)" stroke-linejoin="round" stroke-linecap="round" stroke-miterlimit="4" stroke-width="2.4615" d="M34.877 22.655h-29.538"></path>
</symbol>
<symbol id="icon-fb" viewBox="0 0 32 32">
<path fill="#f7f8fa" style="fill: var(--color2, #f7f8fa)" d="M19.518 4.64c0.24 0 0.48 0 0.96 0v3.6c-0.24 0-0.72 0-1.2 0s-0.96 0-1.2 0.24c-0.24 0.24-0.24 0.48-0.24 1.040 0 0.48 0 0.8 0 1.28h2.64v3.040h-2.64v13.2h-4.080v-13.28h-2.16v-3.040h2.16v-1.040c0-1.76 0.24-3.040 0.72-3.6 0.72-1.040 2.16-1.52 4.32-1.52 0.24 0.080 0.48 0.080 0.72 0.080z"></path>
</symbol>
<symbol id="icon-filter" viewBox="0 0 14 14" xmlns="http://www.w3.org/2000/svg" fill="none">
  <path d="M12.8307 1.75H1.16406L5.83073 7.26833V11.0833L8.16406 12.25V7.26833L12.8307 1.75Z" stroke="white" stroke-width="1.5" stroke-linecap="round" stroke-linejoin="round"/>
</symbol>
<symbol id="icon-instagram" viewBox="0 0 32 32">
<path fill="#f7f8fa" style="fill: var(--color2, #f7f8fa)" opacity="0.8" d="M28.718 10.756c-0.016-1.074-0.215-2.14-0.596-3.145-0.667-1.716-2.024-3.073-3.743-3.737-0.994-0.373-2.044-0.573-3.108-0.596-1.368-0.061-1.801-0.078-5.273-0.078s-3.916 0-5.274 0.078c-1.062 0.023-2.112 0.223-3.106 0.596-1.719 0.664-3.078 2.021-3.743 3.737-0.374 0.992-0.576 2.041-0.596 3.101-0.061 1.367-0.080 1.8-0.080 5.265s0 3.909 0.080 5.265c0.021 1.062 0.222 2.109 0.596 3.104 0.667 1.714 2.024 3.071 3.744 3.735 0.989 0.386 2.040 0.605 3.106 0.639 1.369 0.061 1.803 0.079 5.274 0.079s3.916 0 5.274-0.079c1.062-0.021 2.112-0.221 3.108-0.595 1.719-0.666 3.076-2.022 3.743-3.737 0.374-0.994 0.574-2.041 0.596-3.104 0.061-1.365 0.080-1.798 0.080-5.265-0.003-3.466-0.003-3.906-0.082-5.264zM15.991 22.531c-3.631 0-6.572-2.936-6.572-6.561s2.941-6.561 6.572-6.561c3.628 0 6.572 2.936 6.572 6.561s-2.944 6.561-6.572 6.561zM22.825 10.696c-0.849 0-1.533-0.684-1.533-1.53s0.684-1.53 1.533-1.53c0.846 0 1.531 0.684 1.531 1.53s-0.685 1.53-1.531 1.53z"></path>
<path fill="#f7f8fa" style="fill: var(--color2, #f7f8fa)" opacity="0.8" d="M15.991 19.976c2.211 0 4.004-1.793 4.004-4.004s-1.793-4.004-4.004-4.004c-2.211 0-4.004 1.793-4.004 4.004s1.793 4.004 4.004 4.004z"></path>
</symbol>
<symbol id="icon-lightning" viewBox="0 0 32 32">
<path fill="none" stroke="#59b17a" style="stroke: var(--color1, #59b17a)" stroke-linejoin="round" stroke-linecap="round" stroke-miterlimit="4" stroke-width="2.2857" d="M17.27 3.302l-11.31 13.572c-0.443 0.532-0.664 0.797-0.668 1.022-0.003 0.195 0.084 0.381 0.236 0.503 0.175 0.141 0.521 0.141 1.212 0.141h9.26l-1.27 10.159 11.31-13.572c0.443-0.531 0.664-0.797 0.668-1.022 0.003-0.195-0.084-0.381-0.236-0.503-0.175-0.141-0.521-0.141-1.212-0.141h-9.26l1.27-10.159z"></path>
</symbol>
<symbol id="icon-map-pin" viewBox="0 0 32 32">
<path fill="none" stroke="#59b17a" style="stroke: var(--color1, #59b17a)" stroke-linejoin="round" stroke-linecap="round" stroke-miterlimit="4" stroke-width="2.6667" d="M28 13.333c0 9.333-12 17.333-12 17.333s-12-8-12-17.333c0-3.183 1.264-6.235 3.515-8.485s5.303-3.515 8.485-3.515c3.183 0 6.235 1.264 8.485 3.515s3.515 5.303 3.515 8.485z"></path>
<path fill="none" stroke="#59b17a" style="stroke: var(--color1, #59b17a)" stroke-linejoin="round" stroke-linecap="round" stroke-miterlimit="4" stroke-width="2.6667" d="M16 17.333c2.209 0 4-1.791 4-4s-1.791-4-4-4c-2.209 0-4 1.791-4 4s1.791 4 4 4z"></path>
</symbol>
<symbol id="icon-minus" viewBox="0 0 32 32">
<path fill="none" stroke="#59b17a" style="stroke: var(--color1, #59b17a)" stroke-linejoin="round" stroke-linecap="round" stroke-miterlimit="4" stroke-width="2.88" d="M6.662 16h18.667"></path>
</symbol>
<symbol id="icon-phone" viewBox="0 0 32 32">
<path fill="none" stroke="#59b17a" style="stroke: var(--color1, #59b17a)" stroke-linejoin="round" stroke-linecap="round" stroke-miterlimit="4" stroke-width="2.6667" d="M29.33 22.56v4c0.002 0.371-0.075 0.739-0.223 1.079s-0.367 0.646-0.641 0.897c-0.274 0.251-0.597 0.442-0.948 0.561s-0.725 0.163-1.094 0.13c-4.103-0.446-8.044-1.848-11.507-4.093-3.222-2.047-5.953-4.779-8-8-2.253-3.478-3.656-7.439-4.093-11.56-0.033-0.369 0.010-0.74 0.129-1.091s0.308-0.673 0.558-0.947c0.25-0.273 0.553-0.492 0.892-0.641s0.705-0.227 1.075-0.227h4c0.647-0.006 1.274 0.223 1.765 0.645s0.811 1.008 0.902 1.649c0.169 1.28 0.482 2.537 0.933 3.747 0.179 0.477 0.218 0.996 0.112 1.495s-0.353 0.956-0.712 1.319l-1.693 1.693c1.898 3.338 4.662 6.102 8 8l1.693-1.693c0.363-0.359 0.82-0.605 1.319-0.712s1.017-0.067 1.494 0.112c1.21 0.451 2.467 0.764 3.747 0.933 0.648 0.091 1.239 0.418 1.662 0.917s0.647 1.136 0.631 1.79z"></path>
</symbol>
<symbol id="icon-plus" viewBox="0 0 32 32">
<path fill="none" stroke="#59b17a" style="stroke: var(--color1, #59b17a)" stroke-linejoin="round" stroke-linecap="round" stroke-miterlimit="4" stroke-width="2.88" d="M16 6.667v18.667"></path>
<path fill="none" stroke="#59b17a" style="stroke: var(--color1, #59b17a)" stroke-linejoin="round" stroke-linecap="round" stroke-miterlimit="4" stroke-width="2.88" d="M6.662 16h18.667"></path>
</symbol>
<symbol id="icon-search" viewBox="0 0 16 16" xmlns="http://www.w3.org/2000/svg" fill="none">
  <path d="M7.33333 12.6667C10.2789 12.6667 12.6667 10.2789 12.6667 7.33333C12.6667 4.38781 10.2789 2 7.33333 2C4.38781 2 2 4.38781 2 7.33333C2 10.2789 4.38781 12.6667 7.33333 12.6667Z" stroke="#1D1E21" stroke-width="1.5" stroke-linecap="round" stroke-linejoin="round"/>
  <path d="M13.9996 13.9996L11.0996 11.0996" stroke="#1D1E21" stroke-width="1.5" stroke-linecap="round" stroke-linejoin="round"/>
</symbol>
<symbol id="icon-shopping-cart" viewBox="0 0 32 32">
<path fill="none" stroke="#59b17a" style="stroke: var(--color1, #59b17a)" stroke-linejoin="round" stroke-linecap="round" stroke-miterlimit="4" stroke-width="3" d="M12.005 29.333c0.736 0 1.333-0.597 1.333-1.333s-0.597-1.333-1.333-1.333c-0.736 0-1.333 0.597-1.333 1.333s0.597 1.333 1.333 1.333z"></path>
<path fill="none" stroke="#59b17a" style="stroke: var(--color1, #59b17a)" stroke-linejoin="round" stroke-linecap="round" stroke-miterlimit="4" stroke-width="3" d="M26.661 29.333c0.736 0 1.333-0.597 1.333-1.333s-0.597-1.333-1.333-1.333c-0.736 0-1.333 0.597-1.333 1.333s0.597 1.333 1.333 1.333z"></path>
<path fill="none" stroke="#59b17a" style="stroke: var(--color1, #59b17a)" stroke-linejoin="round" stroke-linecap="round" stroke-miterlimit="4" stroke-width="3" d="M1.328 1.334h5.333l3.573 17.853c0.122 0.614 0.456 1.165 0.943 1.558s1.098 0.601 1.723 0.589h12.96c0.626 0.012 1.236-0.196 1.723-0.589s0.821-0.944 0.943-1.558l2.133-11.187h-22.667"></path>
</symbol>
<symbol id="icon-star" viewBox="0 0 32 32">
<path fill="#ffc531" style="fill: var(--color4, #ffc531); stroke: var(--color4, #ffc531)" stroke="#ffc531" stroke-linejoin="miter" stroke-linecap="butt" stroke-miterlimit="4" stroke-width="2.4" d="M19.6 10.395c0.318 0.603 0.898 1.024 1.57 1.141l7.6 1.313-5.375 5.535c-0.416 0.428-0.637 1.003-0.621 1.592l0.022 0.254 1.098 7.635-6.922-3.402-0.234-0.1c-0.476-0.169-0.996-0.169-1.473 0l-0.234 0.1-6.924 3.402 1.1-7.635c0.085-0.591-0.074-1.187-0.434-1.654l-0.166-0.191-5.377-5.535 7.602-1.313c0.588-0.102 1.106-0.437 1.439-0.924l0.131-0.217 3.6-6.822 3.6 6.822z"></path>
</symbol>
<symbol id="icon-x" viewBox="0 0 32 32">
<path fill="none" stroke="#fff" style="stroke: var(--color1, currentColor)" stroke-linejoin="round" stroke-linecap="round" stroke-miterlimit="4" stroke-width="2" d="M24 8l-16 16"></path>
<path fill="none" stroke="#fff" style="stroke: var(--color1, currentColor)" stroke-linejoin="round" stroke-linecap="round" stroke-miterlimit="4" stroke-width="2" d="M8 8l16 16"></path>
</symbol>
<symbol id="icon-youTube" viewBox="0 0 32 32">
<path fill="#f7f8fa" style="fill: var(--color2, #f7f8fa)" opacity="0.8" d="M24.239 5.999c-1.36-0.080-4.16-0.16-8.4-0.16h-0.56c-4.080 0-6.8 0.080-8.16 0.24-1.84 0.16-3.12 0.64-3.84 1.28-0.64 0.56-1.12 1.6-1.28 2.96-0.080 0.88-0.16 2.72-0.16 5.52v0.4c0 2.64 0.080 4.48 0.24 5.36 0.24 1.28 0.64 2.24 1.44 2.8 0.8 0.64 2.16 1.040 4.080 1.2 1.36 0.080 4.16 0.16 8.4 0.16h0.56c4.080 0 6.8-0.080 8.16-0.24 1.84-0.16 3.12-0.64 3.84-1.28 0.64-0.56 1.12-1.6 1.28-2.96 0.080-0.88 0.16-2.72 0.16-5.52v-0.4c0-2.64-0.080-4.48-0.24-5.36-0.24-1.28-0.64-2.24-1.44-2.8-0.8-0.64-2.16-1.040-4.080-1.2zM21.119 15.839l-8.8 5.28v-10.56l8.8 5.28z"></path>
</symbol>
</defs>
</svg>
